<?xml version="1.0" encoding="utf-8"?>
<!-- Generator: Adobe Illustrator 28.1.0, SVG Export Plug-In . SVG Version: 6.00 Build 0)  -->
<svg version="1.1" id="Layer_1" xmlns="http://www.w3.org/2000/svg" xmlns:xlink="http://www.w3.org/1999/xlink" x="0px" y="0px"
	 viewBox="0 0 1920 1250.21" style="enable-background:new 0 0 1920 1250.21;" xml:space="preserve">
<style type="text/css">
	.st0{fill:#6F6A7C;}
	.st1{fill:#6F7281;}
	.st2{fill:#575E7C;}
	.st3{fill:#999BA6;}
	.st4{fill:#999FB5;}
	.st5{fill:#6F7388;}
	.st6{fill:#0A0121;}
	.st7{fill:#272235;}
	.st8{fill:#575A6D;}
	.st9{fill:#525C81;}
	.st10{fill:#515468;}
	.st11{fill:#454357;}
	.st12{opacity:0.42;fill:#000028;}
</style>
<rect x="830.86" y="267.1" class="st0" width="1089.14" height="897.56"/>
<rect x="1123.77" y="0" class="st1" width="541.12" height="402.47"/>
<path class="st2" d="M1185.34,395.06C1387.94,252.33,1615.92,0,1615.92,0L1920,0v407.05l-706.62,260.07L1185.34,395.06z"/>
<polyline class="st3" points="1029.08,506.76 1168.98,834.14 816.03,1210.58 305.07,834.14 "/>
<path class="st4" d="M876.92,150.37l152.15,356.39c0,0-208.45,154.36-685.02,338.09"/>
<polyline class="st5" points="876.92,150.37 984.66,0 814.17,0 "/>
<polygon class="st6" points="791.81,1250.21 816.03,1210.58 869.9,1250.21 "/>
<path class="st7" d="M816.03,1210.58l53.87,39.63h475.62l-176.54-416.07C1168.98,834.14,1013.09,894.15,816.03,1210.58z"/>
<path class="st8" d="M1920,1250.21v-186.58c-399.75-477.77-751.02-229.49-751.02-229.49l176.54,416.07H1920z"/>
<polygon class="st9" points="0,937.44 344.05,844.85 816.03,1210.58 791.81,1250.21 0,1250.21 "/>
<polygon class="st6" points="0,937.44 0,496.32 610.13,0 814.17,0 876.92,150.37 344.05,844.85 "/>
<polygon class="st10" points="0,0 0,496.32 610.13,0 "/>
<path class="st11" d="M1185.34,395.06C1174.37,158.67,1213.38,0,1213.38,0L984.66,0L876.92,150.37l152.15,356.39L1185.34,395.06z"/>
<rect x="0" y="0" class="st12" width="1920" height="1250.21"/>
</svg>
